SplineFontDB: 3.2
FontName: FX300
FullName: FX300
FamilyName: Prototype FX300
Weight: Regular
Copyright: FX300 remake by NR74W (2021).\nOriginal font design by Studio Liverpool (2003/2004).
UComments: "2021-3-28: Created with FontForge (http://fontforge.org)"
FontLog: "The FX300 font from a WipEout Pure prototype, or artwork.+AAoA-Made by Sony Computer Entertainment Europe Studio Liverpool.+AAoACgAA-Version 1.0.+AAoA-Homepage: https://github.com/NR74W/WipEout-Fonts+AAoACgAA-A low-res blocky font, may have been used in a very early prototype of WipEout Pure, between 2003 and 2004.+AAoA-It can only be seen on one picture in the gallery of WipEout Pure.+AAoA-The font was reconstructed using the picture displaying the character set and font name.+AAoACgAA-Unlike 2197 Block and 2197 Heavy, this font may have never been used anywhere.+AAoA-Not to be confused with +ACIA-FX300 Angular+ACIA, the nice angular font used in the final version.+AAoACgAA-Since the font family name cannot start with a number, I named the two 2197 fonts with a +ACIA-Prototype+ACIA prefix.+AAoA-For consistency, this one has the family name +ACIA-Prototype FX300+ACIA.+AAoACgAA--- NR74W (2021)"
Version: 1.00
ItalicAngle: 0
UnderlinePosition: -100
UnderlineWidth: 50
Ascent: 800
Descent: 200
InvalidEm: 0
LayerCount: 2
Layer: 0 0 "Arri+AOgA-re" 1
Layer: 1 0 "Avant" 0
XUID: [1021 17 266829378 18786]
StyleMap: 0x0040
FSType: 0
OS2Version: 0
OS2_WeightWidthSlopeOnly: 0
OS2_UseTypoMetrics: 1
CreationTime: 1616944234
ModificationTime: 1622332088
PfmFamily: 81
TTFWeight: 400
TTFWidth: 5
LineGap: 94
VLineGap: 0
OS2TypoAscent: 0
OS2TypoAOffset: 1
OS2TypoDescent: 0
OS2TypoDOffset: 1
OS2TypoLinegap: 94
OS2WinAscent: 0
OS2WinAOffset: 1
OS2WinDescent: 0
OS2WinDOffset: 1
HheadAscent: 0
HheadAOffset: 1
HheadDescent: 0
HheadDOffset: 1
OS2Vendor: 'PfEd'
MarkAttachClasses: 1
DEI: 91125
LangName: 1033
Encoding: UnicodeBmp
Compacted: 1
UnicodeInterp: none
NameList: AGL For New Fonts
DisplaySize: -48
AntiAlias: 1
FitToEm: 0

StartChar: zero
Encoding: 48 48 0
Width: 960
VWidth: 1024
Flags: W
HStem: 0 160<160 640> 640 160<160 640>
VStem: 0 160<160 640> 640 160<160 640>
LayerCount: 2
Fore
SplineSet
160 160 m 1
 640 160 l 1
 640 640 l 1
 160 640 l 1
 160 160 l 1
  Spiro
    160 160 v
    640 160 v
    640 640 v
    160 640 v
    0 0 z
  EndSpiro
0 0 m 1
 0 800 l 1
 800 800 l 1
 800 0 l 1
 0 0 l 1
  Spiro
    0 0 v
    0 800 v
    800 800 v
    800 0 v
    0 0 z
  EndSpiro
EndSplineSet
Validated: 1
EndChar

StartChar: O
Encoding: 79 79 3
Width: 960
VWidth: 1024
Flags: W
HStem: 0 160<160 640> 640 160<160 640>
VStem: 0 160<160 640> 640 160<160 640>
LayerCount: 2
Fore
SplineSet
160 160 m 1
 640 160 l 1
 640 640 l 1
 160 640 l 1
 160 160 l 1
0 0 m 1
 0 800 l 1
 800 800 l 1
 800 0 l 1
 0 0 l 1
EndSplineSet
Validated: 1
EndChar

StartChar: o
Encoding: 111 111 4
Width: 960
VWidth: 1024
Flags: W
HStem: 0 160<160 640> 640 160<160 640>
VStem: 0 160<160 640> 640 160<160 640>
LayerCount: 2
Fore
SplineSet
160 160 m 1
 640 160 l 1
 640 640 l 1
 160 640 l 1
 160 160 l 1
0 0 m 1
 0 800 l 1
 800 800 l 1
 800 0 l 1
 0 0 l 1
EndSplineSet
Validated: 1
EndChar

StartChar: uniE000
Encoding: 57344 57344 5
Width: 960
VWidth: 1024
Flags: W
HStem: 0 160<320 800> 320 160<320 480> 480 160<480 640> 640 160<640 800>
VStem: 0 160<320 800> 320 160<320 480> 480 160<480 640> 640 160<640 800>
LayerCount: 2
Fore
SplineSet
640 640 m 1xaa
 640 800 l 1
 800 800 l 1
 800 640 l 1x99
 640 640 l 1xaa
480 480 m 1xcc
 480 640 l 1
 640 640 l 1
 640 480 l 1xaa
 480 480 l 1xcc
320 320 m 1xcc
 320 480 l 1
 480 480 l 1
 480 320 l 1
 320 320 l 1xcc
0 0 m 1
 0 800 l 1
 160 800 l 1
 160 320 l 1
 320 320 l 1
 320 160 l 1
 800 160 l 1
 800 0 l 1xdd
 0 0 l 1
EndSplineSet
Validated: 5
EndChar

StartChar: uniE001
Encoding: 57345 57345 6
Width: 960
VWidth: 1024
Flags: W
HStem: 0 160<160 640> 640 160<160 640>
VStem: 0 160<160 640> 640 160<160 640>
LayerCount: 2
Fore
SplineSet
160 160 m 1
 640 160 l 1
 640 640 l 1
 160 640 l 1
 160 160 l 1
  Spiro
    160 160 v
    640 160 v
    640 640 v
    160 640 v
    0 0 z
  EndSpiro
0 0 m 1
 0 800 l 1
 800 800 l 1
 800 0 l 1
 0 0 l 1
  Spiro
    0 0 v
    0 800 v
    800 800 v
    800 0 v
    0 0 z
  EndSpiro
EndSplineSet
Validated: 1
EndChar

StartChar: uniE002
Encoding: 57346 57346 7
Width: 960
VWidth: 1024
Flags: W
HStem: -0 160<160 640> 640 160<160 640>
VStem: 0 160<160 640> 640 160<160 640>
LayerCount: 2
Fore
SplineSet
640 160 m 1
 640 640 l 1
 800 640 l 1
 800 160 l 1
 640 160 l 1
160 640 m 1
 160 800 l 1
 640 800 l 1
 640 640 l 1
 160 640 l 1
160 -0 m 1
 160 160 l 1
 640 160 l 1
 640 -0 l 1
 160 -0 l 1
0 160 m 1
 0 640 l 1
 160 640 l 1
 160 160 l 1
 0 160 l 1
EndSplineSet
Validated: 5
EndChar

StartChar: uniE003
Encoding: 57347 57347 8
Width: 960
VWidth: 1024
Flags: W
HStem: 0 160<0 160 640 800> 160 160<160 320 480 640> 320 160<320 480> 480 160<160 320 480 640> 640 160<0 160 640 800>
VStem: 0 160<0 160 640 800> 160 160<160 320 480 640> 320 160<320 480> 480 160<160 320 480 640> 640 160<0 160 640 800>
LayerCount: 2
Fore
SplineSet
640 0 m 1x8040
 640 160 l 1x8080
 800 160 l 1
 800 0 l 1
 640 0 l 1x8040
480 160 m 1x4080
 480 320 l 1x41
 640 320 l 1x4080
 640 160 l 1x8080
 480 160 l 1x4080
640 640 m 1x1080
 640 800 l 1
 800 800 l 1
 800 640 l 1x0840
 640 640 l 1x1080
480 480 m 1x21
 480 640 l 1
 640 640 l 1
 640 480 l 1x1080
 480 480 l 1x21
0 640 m 1x0c
 0 800 l 1
 160 800 l 1x0c
 160 640 l 1x14
 0 640 l 1x0c
160 480 m 1x12
 160 640 l 1x14
 320 640 l 1x12
 320 480 l 1x22
 160 480 l 1x12
320 320 m 1x42
 320 480 l 1x22
 480 480 l 1x21
 480 320 l 1x41
 320 320 l 1x42
160 160 m 1x84
 160 320 l 1
 320 320 l 1
 320 160 l 1x42
 160 160 l 1x84
0 0 m 1x84
 0 160 l 1
 160 160 l 1
 160 0 l 1
 0 0 l 1x84
EndSplineSet
Validated: 5
EndChar

StartChar: uniE004
Encoding: 57348 57348 9
Width: 960
VWidth: 1024
Flags: W
HStem: 0 320<0 160 640 800> 0 160<160 640> 320 320<160 320 480 640> 780 20G<320 480>
VStem: 0 160<160 320> 160 160<320 480> 320 160<640 800> 480 160<320 480> 640 160<160 320>
LayerCount: 2
Fore
SplineSet
160 320 m 1x98
 160 640 l 1x34
 320 640 l 1
 320 800 l 1
 480 800 l 1
 480 640 l 1
 640 640 l 1x3280
 640 320 l 1x91
 480 320 l 1
 480 480 l 1
 320 480 l 1
 320 320 l 1x35
 160 320 l 1x98
0 0 m 1x9880
 0 320 l 1
 160 320 l 1x9880
 160 160 l 1
 640 160 l 1x5880
 640 320 l 1x91
 800 320 l 1
 800 0 l 1
 0 0 l 1x9880
EndSplineSet
Validated: 5
EndChar

StartChar: uniE005
Encoding: 57349 57349 10
Width: 960
VWidth: 1024
Flags: W
HStem: 0 160<160 800> 780 20G<0 160 480 640>
VStem: 0 160<160 800> 480 160<320 800>
LayerCount: 2
Fore
SplineSet
480 320 m 1
 480 800 l 1
 640 800 l 1
 640 320 l 1
 480 320 l 1
0 0 m 1
 0 800 l 1
 160 800 l 1
 160 160 l 1
 800 160 l 1
 800 0 l 1
 0 0 l 1
EndSplineSet
Validated: 1
EndChar

StartChar: uniE006
Encoding: 57350 57350 11
Width: 960
VWidth: 1024
Flags: W
HStem: 0 160<160 800> 320 160<640 800> 640 160<320 480>
VStem: 0 160<160 800> 480 160<480 640>
CounterMasks: 1 e0
LayerCount: 2
Fore
SplineSet
320 640 m 1
 320 800 l 1
 640 800 l 1
 640 480 l 1
 800 480 l 1
 800 320 l 1
 480 320 l 1
 480 640 l 1
 320 640 l 1
0 0 m 1
 0 800 l 1
 160 800 l 1
 160 160 l 1
 800 160 l 1
 800 0 l 1
 0 0 l 1
EndSplineSet
Validated: 1
EndChar

StartChar: L
Encoding: 76 76 12
Width: 960
VWidth: 1024
Flags: W
HStem: 0 160<160 800> 780 20G<0 160>
VStem: 0 160<160 800>
LayerCount: 2
Fore
SplineSet
0 0 m 1
 0 800 l 1
 160 800 l 1
 160 160 l 1
 800 160 l 1
 800 0 l 1
 0 0 l 1
EndSplineSet
Validated: 1
EndChar

StartChar: l
Encoding: 108 108 13
Width: 960
VWidth: 1024
Flags: W
HStem: 0 160<160 800> 780 20G<0 160>
VStem: 0 160<160 800>
LayerCount: 2
Fore
SplineSet
0 0 m 1
 0 800 l 1
 160 800 l 1
 160 160 l 1
 800 160 l 1
 800 0 l 1
 0 0 l 1
EndSplineSet
Validated: 1
EndChar

StartChar: U
Encoding: 85 85 14
Width: 960
VWidth: 1024
Flags: W
HStem: 0 160<160 640> 780 20G<0 160 640 800>
VStem: 0 160<160 800> 640 160<160 800>
LayerCount: 2
Fore
SplineSet
0 0 m 1
 0 800 l 1
 160 800 l 1
 160 160 l 1
 640 160 l 1
 640 800 l 1
 800 800 l 1
 800 0 l 1
 0 0 l 1
EndSplineSet
Validated: 1
EndChar

StartChar: u
Encoding: 117 117 15
Width: 960
VWidth: 1024
Flags: W
HStem: 0 160<160 640> 780 20G<0 160 640 800>
VStem: 0 160<160 800> 640 160<160 800>
LayerCount: 2
Fore
SplineSet
0 0 m 1
 0 800 l 1
 160 800 l 1
 160 160 l 1
 640 160 l 1
 640 800 l 1
 800 800 l 1
 800 0 l 1
 0 0 l 1
EndSplineSet
Validated: 1
EndChar

StartChar: I
Encoding: 73 73 16
Width: 320
VWidth: 1024
Flags: W
HStem: 0 21G<0 160> 780 20G<0 160>
VStem: 0 160<0 800>
LayerCount: 2
Fore
SplineSet
0 0 m 1
 0 800 l 1
 160 800 l 1
 160 0 l 1
 0 0 l 1
EndSplineSet
Validated: 1
EndChar

StartChar: i
Encoding: 105 105 17
Width: 320
VWidth: 1024
Flags: W
HStem: 0 21G<0 160> 780 20G<0 160>
VStem: 0 160<0 800>
LayerCount: 2
Fore
SplineSet
0 0 m 1
 0 800 l 1
 160 800 l 1
 160 0 l 1
 0 0 l 1
EndSplineSet
Validated: 1
EndChar

StartChar: one
Encoding: 49 49 18
Width: 960
VWidth: 1024
Flags: W
HStem: 0 21G<320 480> 780 20G<320 480>
VStem: 320 160<0 800>
LayerCount: 2
Fore
SplineSet
320 0 m 1
 320 800 l 1
 480 800 l 1
 480 0 l 1
 320 0 l 1
EndSplineSet
Validated: 1
EndChar

StartChar: A
Encoding: 65 65 19
Width: 960
VWidth: 1024
Flags: W
HStem: 0 21G<0 160 640 800> 320 160<160 640> 640 160<160 640>
VStem: 0 160<0 320 480 640> 640 160<0 320 480 640>
LayerCount: 2
Fore
SplineSet
160 480 m 1
 640 480 l 1
 640 640 l 1
 160 640 l 1
 160 480 l 1
0 0 m 1
 0 800 l 1
 800 800 l 1
 800 0 l 1
 640 0 l 1
 640 320 l 1
 160 320 l 1
 160 0 l 1
 0 0 l 1
EndSplineSet
Validated: 1
EndChar

StartChar: eight
Encoding: 56 56 20
Width: 960
VWidth: 1024
Flags: W
HStem: 0 160<160 640> 320 160<160 640> 640 160<160 640>
VStem: 0 160<160 320 480 640> 640 160<160 320 480 640>
CounterMasks: 1 e0
LayerCount: 2
Fore
SplineSet
160 480 m 1
 640 480 l 1
 640 640 l 1
 160 640 l 1
 160 480 l 1
160 160 m 1
 640 160 l 1
 640 320 l 1
 160 320 l 1
 160 160 l 1
0 0 m 1
 0 800 l 1
 800 800 l 1
 800 0 l 1
 0 0 l 1
EndSplineSet
Validated: 1
EndChar

StartChar: N
Encoding: 78 78 21
Width: 960
VWidth: 1024
Flags: W
HStem: 0 21G<0 160 640 800> 640 160<160 640>
VStem: 0 160<0 640> 640 160<0 640>
LayerCount: 2
Fore
SplineSet
0 0 m 1
 0 800 l 1
 800 800 l 1
 800 0 l 1
 640 0 l 1
 640 640 l 1
 160 640 l 1
 160 0 l 1
 0 0 l 1
EndSplineSet
Validated: 1
EndChar

StartChar: n
Encoding: 110 110 22
Width: 960
VWidth: 1024
Flags: W
HStem: 0 21G<0 160 640 800> 640 160<160 640>
VStem: 0 160<0 640> 640 160<0 640>
LayerCount: 2
Fore
SplineSet
0 0 m 1
 0 800 l 1
 800 800 l 1
 800 0 l 1
 640 0 l 1
 640 640 l 1
 160 640 l 1
 160 0 l 1
 0 0 l 1
EndSplineSet
Validated: 1
EndChar

StartChar: P
Encoding: 80 80 23
Width: 960
VWidth: 1024
Flags: W
HStem: 0 21G<0 160> 320 160<160 640> 640 160<160 640>
VStem: 0 160<0 320 480 640> 640 160<480 640>
LayerCount: 2
Fore
SplineSet
160 480 m 1
 640 480 l 1
 640 640 l 1
 160 640 l 1
 160 480 l 1
0 0 m 1
 0 800 l 1
 800 800 l 1
 800 320 l 1
 160 320 l 1
 160 0 l 1
 0 0 l 1
EndSplineSet
Validated: 1
EndChar

StartChar: p
Encoding: 112 112 24
Width: 960
VWidth: 1024
Flags: W
HStem: 0 21G<0 160> 320 160<160 640> 640 160<160 640>
VStem: 0 160<0 320 480 640> 640 160<480 640>
LayerCount: 2
Fore
SplineSet
160 480 m 1
 640 480 l 1
 640 640 l 1
 160 640 l 1
 160 480 l 1
0 0 m 1
 0 800 l 1
 800 800 l 1
 800 320 l 1
 160 320 l 1
 160 0 l 1
 0 0 l 1
EndSplineSet
Validated: 1
EndChar

StartChar: a
Encoding: 97 97 25
Width: 960
VWidth: 1024
Flags: W
HStem: 0 21G<0 160 640 800> 320 160<160 640> 640 160<160 640>
VStem: 0 160<0 320 480 640> 640 160<0 320 480 640>
LayerCount: 2
Fore
SplineSet
160 480 m 1
 640 480 l 1
 640 640 l 1
 160 640 l 1
 160 480 l 1
0 0 m 1
 0 800 l 1
 800 800 l 1
 800 0 l 1
 640 0 l 1
 640 320 l 1
 160 320 l 1
 160 0 l 1
 0 0 l 1
EndSplineSet
Validated: 1
EndChar

StartChar: C
Encoding: 67 67 26
Width: 960
VWidth: 1024
Flags: W
HStem: 0 160<160 640> 640 160<160 640>
VStem: 0 160<160 640> 640 160<160 320 480 640>
LayerCount: 2
Fore
SplineSet
0 0 m 1
 0 800 l 1
 800 800 l 1
 800 480 l 9
 640 480 l 17
 640 640 l 1
 160 640 l 1
 160 160 l 1
 640 160 l 1
 640 320 l 9
 800 320 l 17
 800 0 l 1
 0 0 l 1
EndSplineSet
Validated: 1
EndChar

StartChar: c
Encoding: 99 99 27
Width: 960
VWidth: 1024
Flags: W
HStem: 0 160<160 640> 640 160<160 640>
VStem: 0 160<160 640> 640 160<160 320 480 640>
LayerCount: 2
Fore
SplineSet
0 0 m 1
 0 800 l 1
 800 800 l 1
 800 480 l 9
 640 480 l 17
 640 640 l 1
 160 640 l 1
 160 160 l 1
 640 160 l 1
 640 320 l 9
 800 320 l 17
 800 0 l 1
 0 0 l 1
EndSplineSet
Validated: 1
EndChar

StartChar: seven
Encoding: 55 55 28
Width: 960
VWidth: 1024
Flags: W
HStem: 0 21G<640 800> 640 160<0 640>
VStem: 640 160<0 640>
LayerCount: 2
Fore
SplineSet
0 640 m 1
 0 800 l 1
 800 800 l 1
 800 0 l 1
 640 0 l 1
 640 640 l 1
 0 640 l 1
EndSplineSet
Validated: 1
EndChar

StartChar: plus
Encoding: 43 43 29
Width: 960
VWidth: 1024
Flags: W
HStem: 0 21G<320 480> 320 160<0 320 480 800> 780 20G<320 480>
VStem: 320 160<0 320 480 800>
LayerCount: 2
Fore
SplineSet
0 320 m 1
 0 480 l 1
 320 480 l 1
 320 800 l 1
 480 800 l 1
 480 480 l 1
 800 480 l 1
 800 320 l 1
 480 320 l 1
 480 0 l 1
 320 0 l 1
 320 320 l 1
 0 320 l 1
EndSplineSet
Validated: 1
EndChar

StartChar: hyphen
Encoding: 45 45 30
Width: 960
VWidth: 1024
Flags: W
HStem: 320 160<0 800>
LayerCount: 2
Fore
SplineSet
0 320 m 1
 0 480 l 1
 800 480 l 1
 800 320 l 1
 0 320 l 1
EndSplineSet
Validated: 1
EndChar

StartChar: period
Encoding: 46 46 31
Width: 320
VWidth: 1024
Flags: W
HStem: 0 160<0 160>
VStem: 0 160<0 160>
LayerCount: 2
Fore
SplineSet
0 0 m 1
 0 160 l 1
 160 160 l 1
 160 0 l 1
 0 0 l 1
EndSplineSet
Validated: 1
EndChar

StartChar: underscore
Encoding: 95 95 32
Width: 960
VWidth: 1024
Flags: W
HStem: 0 160<0 800>
LayerCount: 2
Fore
SplineSet
0 0 m 1
 0 160 l 1
 800 160 l 1
 800 0 l 1
 0 0 l 1
EndSplineSet
Validated: 1
EndChar

StartChar: B
Encoding: 66 66 33
Width: 960
VWidth: 1024
Flags: W
HStem: 0 160<160 640> 320 160<160 480> 640 160<160 480>
VStem: 0 160<160 320 480 640> 480 160<480 640> 640 160<160 320>
CounterMasks: 1 e0
LayerCount: 2
Fore
SplineSet
160 160 m 1xf4
 640 160 l 1
 640 320 l 1
 160 320 l 1
 160 160 l 1xf4
0 0 m 1
 0 800 l 1
 640 800 l 1xf4
 640 480 l 1xf8
 800 480 l 1
 800 0 l 1
 0 0 l 1
160 480 m 1
 480 480 l 1
 480 640 l 1xf8
 160 640 l 1
 160 480 l 1
EndSplineSet
Validated: 1
EndChar

StartChar: E
Encoding: 69 69 34
Width: 960
VWidth: 1024
Flags: W
HStem: 0 160<160 800> 320 160<160 640> 640 160<160 800>
VStem: 0 160<160 320 480 640>
CounterMasks: 1 e0
LayerCount: 2
Fore
SplineSet
0 0 m 1
 0 800 l 1
 800 800 l 1
 800 640 l 1
 160 640 l 1
 160 480 l 1
 640 480 l 1
 640 320 l 1
 160 320 l 1
 160 160 l 1
 800 160 l 1
 800 0 l 1
 0 0 l 1
EndSplineSet
Validated: 1
EndChar

StartChar: e
Encoding: 101 101 35
Width: 960
VWidth: 1024
Flags: W
HStem: 0 160<160 800> 320 160<160 640> 640 160<160 800>
VStem: 0 160<160 320 480 640>
CounterMasks: 1 e0
LayerCount: 2
Fore
SplineSet
0 0 m 1
 0 800 l 1
 800 800 l 1
 800 640 l 1
 160 640 l 1
 160 480 l 1
 640 480 l 1
 640 320 l 1
 160 320 l 1
 160 160 l 1
 800 160 l 1
 800 0 l 1
 0 0 l 1
EndSplineSet
Validated: 1
EndChar

StartChar: F
Encoding: 70 70 36
Width: 960
VWidth: 1024
Flags: W
HStem: 0 21G<0 160> 320 160<160 640> 640 160<160 800>
VStem: 0 160<0 320 480 640>
LayerCount: 2
Fore
SplineSet
0 0 m 1
 0 800 l 1
 800 800 l 1
 800 640 l 1
 160 640 l 1
 160 480 l 1
 640 480 l 1
 640 320 l 1
 160 320 l 1
 160 0 l 1
 0 0 l 1
EndSplineSet
Validated: 1
EndChar

StartChar: f
Encoding: 102 102 37
Width: 960
VWidth: 1024
Flags: W
HStem: 0 21G<0 160> 320 160<160 640> 640 160<160 800>
VStem: 0 160<0 320 480 640>
LayerCount: 2
Fore
SplineSet
0 0 m 1
 0 800 l 1
 800 800 l 1
 800 640 l 1
 160 640 l 1
 160 480 l 1
 640 480 l 1
 640 320 l 1
 160 320 l 1
 160 0 l 1
 0 0 l 1
EndSplineSet
Validated: 1
EndChar

StartChar: H
Encoding: 72 72 38
Width: 960
VWidth: 1024
Flags: W
HStem: 0 21G<0 160 640 800> 320 160<160 640> 780 20G<0 160 640 800>
VStem: 0 160<0 320 480 800> 640 160<0 320 480 800>
LayerCount: 2
Fore
SplineSet
0 0 m 1
 0 800 l 1
 160 800 l 1
 160 480 l 1
 640 480 l 1
 640 800 l 1
 800 800 l 1
 800 0 l 1
 640 0 l 1
 640 320 l 1
 160 320 l 1
 160 0 l 1
 0 0 l 1
EndSplineSet
Validated: 1
EndChar

StartChar: h
Encoding: 104 104 39
Width: 960
VWidth: 1024
Flags: W
HStem: 0 21G<0 160 640 800> 320 160<160 640> 780 20G<0 160 640 800>
VStem: 0 160<0 320 480 800> 640 160<0 320 480 800>
LayerCount: 2
Fore
SplineSet
0 0 m 1
 0 800 l 1
 160 800 l 1
 160 480 l 1
 640 480 l 1
 640 800 l 1
 800 800 l 1
 800 0 l 1
 640 0 l 1
 640 320 l 1
 160 320 l 1
 160 0 l 1
 0 0 l 1
EndSplineSet
Validated: 1
EndChar

StartChar: J
Encoding: 74 74 40
Width: 960
VWidth: 1024
Flags: W
HStem: 0 160<160 640> 780 20G<640 800>
VStem: 0 160<160 480> 640 160<160 800>
LayerCount: 2
Fore
SplineSet
0 0 m 1
 0 480 l 1
 160 480 l 1
 160 160 l 1
 640 160 l 1
 640 800 l 1
 800 800 l 1
 800 0 l 1
 0 0 l 1
EndSplineSet
Validated: 1
EndChar

StartChar: K
Encoding: 75 75 41
Width: 960
VWidth: 1024
Flags: W
HStem: 0 21G<0 160 640 800> 320 160<160 480> 780 20G<0 160 640 800>
VStem: 0 160<0 320 480 800> 640 160<0 320 640 800>
LayerCount: 2
Fore
SplineSet
640 0 m 1
 640 320 l 9
 800 320 l 1
 800 0 l 1
 640 0 l 1
0 0 m 1
 0 800 l 1
 160 800 l 1
 160 480 l 1
 480 480 l 1
 480 640 l 1
 640 640 l 1
 640 800 l 9
 800 800 l 25
 800 480 l 1
 640 480 l 17
 640 320 l 1
 160 320 l 1
 160 0 l 1
 0 0 l 1
EndSplineSet
Validated: 5
EndChar

StartChar: j
Encoding: 106 106 42
Width: 960
VWidth: 1024
Flags: W
HStem: 0 160<160 640> 780 20G<640 800>
VStem: 0 160<160 480> 640 160<160 800>
LayerCount: 2
Fore
SplineSet
0 0 m 1
 0 480 l 1
 160 480 l 1
 160 160 l 1
 640 160 l 1
 640 800 l 1
 800 800 l 1
 800 0 l 1
 0 0 l 1
EndSplineSet
Validated: 1
EndChar

StartChar: k
Encoding: 107 107 43
Width: 960
VWidth: 1024
Flags: W
HStem: 0 21G<0 160 640 800> 320 160<160 480> 780 20G<0 160 640 800>
VStem: 0 160<0 320 480 800> 640 160<0 320 640 800>
LayerCount: 2
Fore
SplineSet
640 0 m 1
 640 320 l 9
 800 320 l 1
 800 0 l 1
 640 0 l 1
0 0 m 1
 0 800 l 1
 160 800 l 1
 160 480 l 1
 480 480 l 1
 480 640 l 1
 640 640 l 1
 640 800 l 9
 800 800 l 25
 800 480 l 1
 640 480 l 17
 640 320 l 1
 160 320 l 1
 160 0 l 1
 0 0 l 1
EndSplineSet
Validated: 5
EndChar

StartChar: M
Encoding: 77 77 44
Width: 960
VWidth: 1024
Flags: W
HStem: 0 21G<0 160 320 480 640 800> 640 160<160 320 480 640>
VStem: 0 160<0 640> 320 160<0 640> 640 160<0 640>
CounterMasks: 1 38
LayerCount: 2
Fore
SplineSet
0 0 m 1
 0 800 l 1
 800 800 l 1
 800 0 l 1
 640 0 l 1
 640 640 l 1
 480 640 l 1
 480 0 l 1
 320 0 l 1
 320 640 l 1
 160 640 l 1
 160 0 l 1
 0 0 l 1
EndSplineSet
Validated: 1
EndChar

StartChar: m
Encoding: 109 109 45
Width: 960
VWidth: 1024
Flags: W
HStem: 0 21G<0 160 320 480 640 800> 640 160<160 320 480 640>
VStem: 0 160<0 640> 320 160<0 640> 640 160<0 640>
CounterMasks: 1 38
LayerCount: 2
Fore
SplineSet
0 0 m 1
 0 800 l 1
 800 800 l 1
 800 0 l 1
 640 0 l 1
 640 640 l 1
 480 640 l 1
 480 0 l 1
 320 0 l 1
 320 640 l 1
 160 640 l 1
 160 0 l 1
 0 0 l 1
EndSplineSet
Validated: 1
EndChar

StartChar: Q
Encoding: 81 81 46
Width: 960
VWidth: 1024
Flags: W
HStem: -0 160<160 320 480 640> 640 160<160 640>
VStem: 0 160<160 640> 320 160<-160 0 160 320> 640 160<160 640>
CounterMasks: 1 38
LayerCount: 2
Fore
SplineSet
0 0 m 1
 0 800 l 1
 800 800 l 1
 800 0 l 1
 480 0 l 1
 480 -160 l 1
 320 -160 l 1
 320 -0 l 1
 0 0 l 1
160 160 m 1
 320 160 l 1
 320 320 l 1
 480 320 l 1
 480 160 l 1
 640 160 l 1
 640 640 l 1
 160 640 l 1
 160 160 l 1
EndSplineSet
Validated: 1
EndChar

StartChar: q
Encoding: 113 113 47
Width: 960
VWidth: 1024
Flags: W
HStem: -0 160<160 320 480 640> 640 160<160 640>
VStem: 0 160<160 640> 320 160<-160 0 160 320> 640 160<160 640>
CounterMasks: 1 38
LayerCount: 2
Fore
SplineSet
0 0 m 1
 0 800 l 1
 800 800 l 1
 800 0 l 1
 480 0 l 1
 480 -160 l 1
 320 -160 l 1
 320 -0 l 1
 0 0 l 1
160 160 m 1
 320 160 l 1
 320 320 l 1
 480 320 l 1
 480 160 l 1
 640 160 l 1
 640 640 l 1
 160 640 l 1
 160 160 l 1
EndSplineSet
Validated: 1
EndChar

StartChar: S
Encoding: 83 83 48
Width: 960
VWidth: 1024
Flags: W
HStem: 0 160<0 640> 320 160<160 640> 640 160<160 800>
VStem: 0 160<480 640> 640 160<160 320>
CounterMasks: 1 e0
LayerCount: 2
Fore
SplineSet
0 0 m 1
 0 160 l 1
 640 160 l 1
 640 320 l 1
 0 320 l 1
 0 800 l 1
 800 800 l 1
 800 640 l 1
 160 640 l 1
 160 480 l 1
 800 480 l 1
 800 0 l 1
 0 0 l 1
EndSplineSet
Validated: 1
EndChar

StartChar: T
Encoding: 84 84 49
Width: 960
VWidth: 1024
Flags: W
HStem: 0 21G<320 480> 640 160<0 320 480 800>
VStem: 320 160<0 640>
LayerCount: 2
Fore
SplineSet
0 640 m 1
 0 800 l 1
 800 800 l 1
 800 640 l 1
 480 640 l 1
 480 0 l 1
 320 0 l 1
 320 640 l 1
 0 640 l 1
EndSplineSet
Validated: 1
EndChar

StartChar: t
Encoding: 116 116 50
Width: 960
VWidth: 1024
Flags: W
HStem: 0 21G<320 480> 640 160<0 320 480 800>
VStem: 320 160<0 640>
LayerCount: 2
Fore
SplineSet
0 640 m 1
 0 800 l 1
 800 800 l 1
 800 640 l 1
 480 640 l 1
 480 0 l 1
 320 0 l 1
 320 640 l 1
 0 640 l 1
EndSplineSet
Validated: 1
EndChar

StartChar: s
Encoding: 115 115 51
Width: 960
VWidth: 1024
Flags: W
HStem: 0 160<0 640> 320 160<160 640> 640 160<160 800>
VStem: 0 160<480 640> 640 160<160 320>
CounterMasks: 1 e0
LayerCount: 2
Fore
SplineSet
0 0 m 1
 0 160 l 1
 640 160 l 1
 640 320 l 1
 0 320 l 1
 0 800 l 1
 800 800 l 1
 800 640 l 1
 160 640 l 1
 160 480 l 1
 800 480 l 1
 800 0 l 1
 0 0 l 1
EndSplineSet
Validated: 1
EndChar

StartChar: five
Encoding: 53 53 52
Width: 960
VWidth: 1024
Flags: W
HStem: 0 160<0 640> 320 160<160 640> 640 160<160 800>
VStem: 0 160<480 640> 640 160<160 320>
CounterMasks: 1 e0
LayerCount: 2
Fore
SplineSet
0 0 m 1
 0 160 l 1
 640 160 l 1
 640 320 l 1
 0 320 l 1
 0 800 l 1
 800 800 l 1
 800 640 l 1
 160 640 l 1
 160 480 l 1
 800 480 l 1
 800 0 l 1
 0 0 l 1
EndSplineSet
Validated: 1
EndChar

StartChar: b
Encoding: 98 98 53
Width: 960
VWidth: 1024
Flags: W
HStem: 0 160<160 640> 320 160<160 480> 640 160<160 480>
VStem: 0 160<160 320 480 640> 480 160<480 640> 640 160<160 320>
CounterMasks: 1 e0
LayerCount: 2
Fore
SplineSet
160 160 m 1xf4
 640 160 l 1
 640 320 l 1
 160 320 l 1
 160 160 l 1xf4
0 0 m 1
 0 800 l 1
 640 800 l 1xf4
 640 480 l 1xf8
 800 480 l 1
 800 0 l 1
 0 0 l 1
160 480 m 1
 480 480 l 1
 480 640 l 1xf8
 160 640 l 1
 160 480 l 1
EndSplineSet
Validated: 1
EndChar

StartChar: R
Encoding: 82 82 54
Width: 960
VWidth: 1024
Flags: W
HStem: 0 160<640 800> 320 160<160 480> 640 160<160 640>
VStem: 0 160<0 320 480 640> 480 160<160 320> 640 160<480 640>
CounterMasks: 1 e0
LayerCount: 2
Fore
SplineSet
0 0 m 1xf8
 0 800 l 1
 800 800 l 1
 800 320 l 1xf4
 640 320 l 1
 640 160 l 1xf8
 800 160 l 1
 800 0 l 1xf4
 480 0 l 1
 480 320 l 1
 160 320 l 1
 160 0 l 1
 0 0 l 1xf8
160 480 m 1
 640 480 l 1
 640 640 l 1
 160 640 l 1
 160 480 l 1
EndSplineSet
Validated: 1
EndChar

StartChar: r
Encoding: 114 114 55
Width: 960
VWidth: 1024
Flags: W
HStem: 0 160<640 800> 320 160<160 480> 640 160<160 640>
VStem: 0 160<0 320 480 640> 480 160<160 320> 640 160<480 640>
CounterMasks: 1 e0
LayerCount: 2
Fore
SplineSet
0 0 m 1xf8
 0 800 l 1
 800 800 l 1
 800 320 l 1xf4
 640 320 l 1
 640 160 l 1xf8
 800 160 l 1
 800 0 l 1xf4
 480 0 l 1
 480 320 l 1
 160 320 l 1
 160 0 l 1
 0 0 l 1xf8
160 480 m 1
 640 480 l 1
 640 640 l 1
 160 640 l 1
 160 480 l 1
EndSplineSet
Validated: 1
EndChar

StartChar: six
Encoding: 54 54 56
Width: 960
VWidth: 1024
Flags: W
HStem: 0 160<160 640> 320 160<160 640> 780 20G<0 160>
VStem: 0 160<160 320 480 800> 640 160<160 320>
LayerCount: 2
Fore
SplineSet
160 160 m 1
 640 160 l 1
 640 320 l 1
 160 320 l 1
 160 160 l 1
0 0 m 1
 0 800 l 1
 160 800 l 1
 160 480 l 1
 800 480 l 1
 800 0 l 1
 0 0 l 1
EndSplineSet
Validated: 1
EndChar

StartChar: nine
Encoding: 57 57 57
Width: 960
VWidth: 1024
Flags: W
HStem: 0 21G<640 800> 320 160<160 640> 640 160<160 640>
VStem: 0 160<480 640> 640 160<0 320 480 640>
LayerCount: 2
Fore
SplineSet
160 480 m 1
 640 480 l 1
 640 640 l 1
 160 640 l 1
 160 480 l 1
0 320 m 1
 0 800 l 1
 800 800 l 1
 800 0 l 1
 640 0 l 1
 640 320 l 1
 0 320 l 1
EndSplineSet
Validated: 1
EndChar

StartChar: two
Encoding: 50 50 58
Width: 960
VWidth: 1024
Flags: W
HStem: 0 160<160 800> 320 160<160 640> 640 160<0 640>
VStem: 0 160<160 320> 640 160<480 640>
CounterMasks: 1 e0
LayerCount: 2
Fore
SplineSet
0 0 m 1
 0 480 l 1
 640 480 l 1
 640 640 l 1
 0 640 l 1
 0 800 l 1
 800 800 l 1
 800 320 l 1
 160 320 l 1
 160 160 l 1
 800 160 l 1
 800 0 l 1
 0 0 l 1
EndSplineSet
Validated: 1
EndChar

StartChar: Z
Encoding: 90 90 59
Width: 960
VWidth: 1024
Flags: W
HStem: 0 160<160 800> 320 160<160 640> 640 160<0 640>
VStem: 0 160<160 320> 640 160<480 640>
CounterMasks: 1 e0
LayerCount: 2
Fore
SplineSet
0 0 m 1
 0 480 l 1
 640 480 l 1
 640 640 l 1
 0 640 l 1
 0 800 l 1
 800 800 l 1
 800 320 l 1
 160 320 l 1
 160 160 l 1
 800 160 l 1
 800 0 l 1
 0 0 l 1
EndSplineSet
Validated: 1
EndChar

StartChar: z
Encoding: 122 122 60
Width: 960
VWidth: 1024
Flags: W
HStem: 0 160<160 800> 320 160<160 640> 640 160<0 640>
VStem: 0 160<160 320> 640 160<480 640>
CounterMasks: 1 e0
LayerCount: 2
Fore
SplineSet
0 0 m 1
 0 480 l 1
 640 480 l 1
 640 640 l 1
 0 640 l 1
 0 800 l 1
 800 800 l 1
 800 320 l 1
 160 320 l 1
 160 160 l 1
 800 160 l 1
 800 0 l 1
 0 0 l 1
EndSplineSet
Validated: 1
EndChar

StartChar: W
Encoding: 87 87 61
Width: 960
VWidth: 1024
Flags: W
HStem: 0 160<160 320 480 640> 780 20G<0 160 320 480 640 800>
VStem: 0 160<160 800> 320 160<160 800> 640 160<160 800>
CounterMasks: 1 38
LayerCount: 2
Fore
SplineSet
0 0 m 1
 0 800 l 1
 160 800 l 1
 160 160 l 1
 320 160 l 1
 320 800 l 1
 480 800 l 1
 480 160 l 1
 640 160 l 1
 640 800 l 1
 800 800 l 1
 800 0 l 1
 0 0 l 1
EndSplineSet
Validated: 1
EndChar

StartChar: w
Encoding: 119 119 62
Width: 960
VWidth: 1024
Flags: W
HStem: 0 160<160 320 480 640> 780 20G<0 160 320 480 640 800>
VStem: 0 160<160 800> 320 160<160 800> 640 160<160 800>
CounterMasks: 1 38
LayerCount: 2
Fore
SplineSet
0 0 m 1
 0 800 l 1
 160 800 l 1
 160 160 l 1
 320 160 l 1
 320 800 l 1
 480 800 l 1
 480 160 l 1
 640 160 l 1
 640 800 l 1
 800 800 l 1
 800 0 l 1
 0 0 l 1
EndSplineSet
Validated: 1
EndChar

StartChar: Y
Encoding: 89 89 63
Width: 960
VWidth: 1024
Flags: W
HStem: 0 21G<320 480> 320 160<160 320 480 640> 780 20G<0 160 640 800>
VStem: 0 160<480 800> 320 160<0 320> 640 160<480 800>
CounterMasks: 1 1c
LayerCount: 2
Fore
SplineSet
0 320 m 1
 0 800 l 1
 160 800 l 1
 160 480 l 1
 640 480 l 1
 640 800 l 1
 800 800 l 1
 800 320 l 1
 480 320 l 1
 480 0 l 1
 320 0 l 1
 320 320 l 1
 0 320 l 1
EndSplineSet
Validated: 1
EndChar

StartChar: y
Encoding: 121 121 64
Width: 960
VWidth: 1024
Flags: W
HStem: 0 21G<320 480> 320 160<160 320 480 640> 780 20G<0 160 640 800>
VStem: 0 160<480 800> 320 160<0 320> 640 160<480 800>
CounterMasks: 1 1c
LayerCount: 2
Fore
SplineSet
0 320 m 1
 0 800 l 1
 160 800 l 1
 160 480 l 1
 640 480 l 1
 640 800 l 1
 800 800 l 1
 800 320 l 1
 480 320 l 1
 480 0 l 1
 320 0 l 1
 320 320 l 1
 0 320 l 1
EndSplineSet
Validated: 1
EndChar

StartChar: X
Encoding: 88 88 65
Width: 960
VWidth: 1024
Flags: W
HStem: 0 160<0 160 640 800> 160 160<160 320 480 640> 320 160<320 480> 480 160<160 320 480 640> 640 160<0 160 640 800>
VStem: 0 160<0 160 640 800> 160 160<160 320 480 640> 320 160<320 480> 480 160<160 320 480 640> 640 160<0 160 640 800>
LayerCount: 2
Fore
SplineSet
640 0 m 1x8040
 640 160 l 1x8080
 800 160 l 1
 800 0 l 1
 640 0 l 1x8040
480 160 m 1x4080
 480 320 l 1x41
 640 320 l 1x4080
 640 160 l 1x8080
 480 160 l 1x4080
640 640 m 1x1080
 640 800 l 1
 800 800 l 1
 800 640 l 1x0840
 640 640 l 1x1080
480 480 m 1x21
 480 640 l 1
 640 640 l 1
 640 480 l 1x1080
 480 480 l 1x21
0 640 m 1x0c
 0 800 l 1
 160 800 l 1x0c
 160 640 l 1x14
 0 640 l 1x0c
160 480 m 1x12
 160 640 l 1x14
 320 640 l 1x12
 320 480 l 1x22
 160 480 l 1x12
320 320 m 1x42
 320 480 l 1x22
 480 480 l 1x21
 480 320 l 1x41
 320 320 l 1x42
160 160 m 1x84
 160 320 l 1
 320 320 l 1
 320 160 l 1x42
 160 160 l 1x84
0 0 m 1x84
 0 160 l 1
 160 160 l 1
 160 0 l 1
 0 0 l 1x84
EndSplineSet
Validated: 5
EndChar

StartChar: x
Encoding: 120 120 66
Width: 960
VWidth: 1024
Flags: W
HStem: 0 160<0 160 640 800> 160 160<160 320 480 640> 320 160<320 480> 480 160<160 320 480 640> 640 160<0 160 640 800>
VStem: 0 160<0 160 640 800> 160 160<160 320 480 640> 320 160<320 480> 480 160<160 320 480 640> 640 160<0 160 640 800>
LayerCount: 2
Fore
SplineSet
640 0 m 1x8040
 640 160 l 1x8080
 800 160 l 1
 800 0 l 1
 640 0 l 1x8040
480 160 m 1x4080
 480 320 l 1x41
 640 320 l 1x4080
 640 160 l 1x8080
 480 160 l 1x4080
640 640 m 1x1080
 640 800 l 1
 800 800 l 1
 800 640 l 1x0840
 640 640 l 1x1080
480 480 m 1x21
 480 640 l 1
 640 640 l 1
 640 480 l 1x1080
 480 480 l 1x21
0 640 m 1x0c
 0 800 l 1
 160 800 l 1x0c
 160 640 l 1x14
 0 640 l 1x0c
160 480 m 1x12
 160 640 l 1x14
 320 640 l 1x12
 320 480 l 1x22
 160 480 l 1x12
320 320 m 1x42
 320 480 l 1x22
 480 480 l 1x21
 480 320 l 1x41
 320 320 l 1x42
160 160 m 1x84
 160 320 l 1
 320 320 l 1
 320 160 l 1x42
 160 160 l 1x84
0 0 m 1x84
 0 160 l 1
 160 160 l 1
 160 0 l 1
 0 0 l 1x84
EndSplineSet
Validated: 5
EndChar

StartChar: G
Encoding: 71 71 67
Width: 960
VWidth: 1024
Flags: W
HStem: 0 160<160 640> 320 160<480 640> 640 160<160 800>
VStem: 0 160<160 640> 640 160<160 320>
CounterMasks: 1 e0
LayerCount: 2
Fore
SplineSet
0 0 m 1
 0 800 l 1
 800 800 l 1
 800 640 l 1
 160 640 l 1
 160 160 l 1
 640 160 l 1
 640 320 l 1
 480 320 l 1
 480 480 l 1
 800 480 l 1
 800 0 l 1
 0 0 l 1
EndSplineSet
Validated: 1
EndChar

StartChar: three
Encoding: 51 51 68
Width: 960
VWidth: 1024
Flags: W
HStem: 0 160<0 640> 320 160<0 640> 640 160<0 640>
VStem: 640 160<160 320 480 640>
CounterMasks: 1 e0
LayerCount: 2
Fore
SplineSet
0 0 m 1
 0 160 l 1
 640 160 l 1
 640 320 l 1
 0 320 l 1
 0 480 l 1
 640 480 l 1
 640 640 l 1
 0 640 l 1
 0 800 l 1
 800 800 l 1
 800 0 l 1
 0 0 l 1
EndSplineSet
Validated: 1
EndChar

StartChar: V
Encoding: 86 86 69
Width: 960
VWidth: 1024
Flags: W
HStem: 0 160<160 640> 780 20G<0 160 640 800>
VStem: 0 160<160 800> 640 160<160 800>
LayerCount: 2
Fore
SplineSet
640 160 m 1
 640 800 l 1
 800 800 l 1
 800 160 l 1
 640 160 l 1
0 160 m 1
 0 800 l 1
 160 800 l 1
 160 160 l 1
 0 160 l 1
160 0 m 1
 160 160 l 1
 640 160 l 1
 640 0 l 1
 160 0 l 1
EndSplineSet
Validated: 5
EndChar

StartChar: v
Encoding: 118 118 70
Width: 960
VWidth: 1024
Flags: W
HStem: 0 160<160 640> 780 20G<0 160 640 800>
VStem: 0 160<160 800> 640 160<160 800>
LayerCount: 2
Fore
SplineSet
640 160 m 1
 640 800 l 1
 800 800 l 1
 800 160 l 1
 640 160 l 1
0 160 m 1
 0 800 l 1
 160 800 l 1
 160 160 l 1
 0 160 l 1
160 0 m 1
 160 160 l 1
 640 160 l 1
 640 0 l 1
 160 0 l 1
EndSplineSet
Validated: 5
EndChar

StartChar: g
Encoding: 103 103 71
Width: 960
VWidth: 1024
Flags: W
HStem: 0 160<160 640> 320 160<480 640> 640 160<160 800>
VStem: 0 160<160 640> 640 160<160 320>
CounterMasks: 1 e0
LayerCount: 2
Fore
SplineSet
0 0 m 1
 0 800 l 1
 800 800 l 1
 800 640 l 1
 160 640 l 1
 160 160 l 1
 640 160 l 1
 640 320 l 1
 480 320 l 1
 480 480 l 1
 800 480 l 1
 800 0 l 1
 0 0 l 1
EndSplineSet
Validated: 1
EndChar

StartChar: D
Encoding: 68 68 72
Width: 960
VWidth: 1024
Flags: W
HStem: 0 160<160 640> 640 160<160 640>
VStem: 0 160<160 640> 640 160<160 640>
LayerCount: 2
Fore
SplineSet
640 160 m 1
 640 640 l 1
 800 640 l 1
 800 160 l 1
 640 160 l 1
0 0 m 1
 0 800 l 1
 640 800 l 1
 640 640 l 1
 160 640 l 1
 160 160 l 1
 640 160 l 1
 640 0 l 1
 0 0 l 1
EndSplineSet
Validated: 5
EndChar

StartChar: d
Encoding: 100 100 73
Width: 960
VWidth: 1024
Flags: W
HStem: 0 160<160 640> 640 160<160 640>
VStem: 0 160<160 640> 640 160<160 640>
LayerCount: 2
Fore
SplineSet
640 160 m 1
 640 640 l 1
 800 640 l 1
 800 160 l 1
 640 160 l 1
0 0 m 1
 0 800 l 1
 640 800 l 1
 640 640 l 1
 160 640 l 1
 160 160 l 1
 640 160 l 1
 640 0 l 1
 0 0 l 1
EndSplineSet
Validated: 5
EndChar

StartChar: four
Encoding: 52 52 74
Width: 960
VWidth: 1024
Flags: W
HStem: 0 21G<320 480> 160 160<160 320 480 800> 780 20G<0 160 320 480>
VStem: 0 160<320 800> 320 160<0 160 320 800>
LayerCount: 2
Fore
SplineSet
0 160 m 1
 0 800 l 1
 160 800 l 1
 160 320 l 1
 320 320 l 1
 320 800 l 1
 480 800 l 1
 480 320 l 1
 800 320 l 1
 800 160 l 1
 480 160 l 1
 480 0 l 1
 320 0 l 1
 320 160 l 1
 0 160 l 1
EndSplineSet
Validated: 1
EndChar

StartChar: Agrave
Encoding: 192 192 75
Width: 960
VWidth: 1024
Flags: W
HStem: 0 21G<0 160 640 800> 320 160<160 640> 640 160<160 640>
VStem: 0 160<0 320 480 640> 640 160<0 320 480 640>
LayerCount: 2
Fore
SplineSet
160 480 m 1
 640 480 l 1
 640 640 l 1
 160 640 l 1
 160 480 l 1
0 0 m 1
 0 800 l 1
 800 800 l 1
 800 0 l 1
 640 0 l 1
 640 320 l 1
 160 320 l 1
 160 0 l 1
 0 0 l 1
EndSplineSet
Validated: 1
EndChar

StartChar: Aacute
Encoding: 193 193 76
Width: 960
VWidth: 1024
Flags: W
HStem: 0 21G<0 160 640 800> 320 160<160 640> 640 160<160 640>
VStem: 0 160<0 320 480 640> 640 160<0 320 480 640>
LayerCount: 2
Fore
SplineSet
160 480 m 1
 640 480 l 1
 640 640 l 1
 160 640 l 1
 160 480 l 1
0 0 m 1
 0 800 l 1
 800 800 l 1
 800 0 l 1
 640 0 l 1
 640 320 l 1
 160 320 l 1
 160 0 l 1
 0 0 l 1
EndSplineSet
Validated: 1
EndChar

StartChar: Acircumflex
Encoding: 194 194 77
Width: 960
VWidth: 1024
Flags: W
HStem: 0 21G<0 160 640 800> 320 160<160 640> 640 160<160 640>
VStem: 0 160<0 320 480 640> 640 160<0 320 480 640>
LayerCount: 2
Fore
SplineSet
160 480 m 1
 640 480 l 1
 640 640 l 1
 160 640 l 1
 160 480 l 1
0 0 m 1
 0 800 l 1
 800 800 l 1
 800 0 l 1
 640 0 l 1
 640 320 l 1
 160 320 l 1
 160 0 l 1
 0 0 l 1
EndSplineSet
Validated: 1
EndChar

StartChar: Atilde
Encoding: 195 195 78
Width: 960
VWidth: 1024
Flags: W
HStem: 0 21G<0 160 640 800> 320 160<160 640> 640 160<160 640>
VStem: 0 160<0 320 480 640> 640 160<0 320 480 640>
LayerCount: 2
Fore
SplineSet
160 480 m 1
 640 480 l 1
 640 640 l 1
 160 640 l 1
 160 480 l 1
0 0 m 1
 0 800 l 1
 800 800 l 1
 800 0 l 1
 640 0 l 1
 640 320 l 1
 160 320 l 1
 160 0 l 1
 0 0 l 1
EndSplineSet
Validated: 1
EndChar

StartChar: Adieresis
Encoding: 196 196 79
Width: 960
VWidth: 1024
Flags: W
HStem: 0 21G<0 160 640 800> 320 160<160 640> 640 160<160 640>
VStem: 0 160<0 320 480 640> 640 160<0 320 480 640>
LayerCount: 2
Fore
SplineSet
160 480 m 1
 640 480 l 1
 640 640 l 1
 160 640 l 1
 160 480 l 1
0 0 m 1
 0 800 l 1
 800 800 l 1
 800 0 l 1
 640 0 l 1
 640 320 l 1
 160 320 l 1
 160 0 l 1
 0 0 l 1
EndSplineSet
Validated: 1
EndChar

StartChar: Aring
Encoding: 197 197 80
Width: 960
VWidth: 1024
Flags: W
HStem: 0 21G<0 160 640 800> 320 160<160 640> 640 160<160 640>
VStem: 0 160<0 320 480 640> 640 160<0 320 480 640>
LayerCount: 2
Fore
SplineSet
160 480 m 1
 640 480 l 1
 640 640 l 1
 160 640 l 1
 160 480 l 1
0 0 m 1
 0 800 l 1
 800 800 l 1
 800 0 l 1
 640 0 l 1
 640 320 l 1
 160 320 l 1
 160 0 l 1
 0 0 l 1
EndSplineSet
Validated: 1
EndChar

StartChar: agrave
Encoding: 224 224 81
Width: 960
VWidth: 1024
Flags: W
HStem: 0 21G<0 160 640 800> 320 160<160 640> 640 160<160 640>
VStem: 0 160<0 320 480 640> 640 160<0 320 480 640>
LayerCount: 2
Fore
SplineSet
160 480 m 1
 640 480 l 1
 640 640 l 1
 160 640 l 1
 160 480 l 1
0 0 m 1
 0 800 l 1
 800 800 l 1
 800 0 l 1
 640 0 l 1
 640 320 l 1
 160 320 l 1
 160 0 l 1
 0 0 l 1
EndSplineSet
Validated: 1
EndChar

StartChar: aacute
Encoding: 225 225 82
Width: 960
VWidth: 1024
Flags: W
HStem: 0 21G<0 160 640 800> 320 160<160 640> 640 160<160 640>
VStem: 0 160<0 320 480 640> 640 160<0 320 480 640>
LayerCount: 2
Fore
SplineSet
160 480 m 1
 640 480 l 1
 640 640 l 1
 160 640 l 1
 160 480 l 1
0 0 m 1
 0 800 l 1
 800 800 l 1
 800 0 l 1
 640 0 l 1
 640 320 l 1
 160 320 l 1
 160 0 l 1
 0 0 l 1
EndSplineSet
Validated: 1
EndChar

StartChar: acircumflex
Encoding: 226 226 83
Width: 960
VWidth: 1024
Flags: W
HStem: 0 21G<0 160 640 800> 320 160<160 640> 640 160<160 640>
VStem: 0 160<0 320 480 640> 640 160<0 320 480 640>
LayerCount: 2
Fore
SplineSet
160 480 m 1
 640 480 l 1
 640 640 l 1
 160 640 l 1
 160 480 l 1
0 0 m 1
 0 800 l 1
 800 800 l 1
 800 0 l 1
 640 0 l 1
 640 320 l 1
 160 320 l 1
 160 0 l 1
 0 0 l 1
EndSplineSet
Validated: 1
EndChar

StartChar: atilde
Encoding: 227 227 84
Width: 960
VWidth: 1024
Flags: W
HStem: 0 21G<0 160 640 800> 320 160<160 640> 640 160<160 640>
VStem: 0 160<0 320 480 640> 640 160<0 320 480 640>
LayerCount: 2
Fore
SplineSet
160 480 m 1
 640 480 l 1
 640 640 l 1
 160 640 l 1
 160 480 l 1
0 0 m 1
 0 800 l 1
 800 800 l 1
 800 0 l 1
 640 0 l 1
 640 320 l 1
 160 320 l 1
 160 0 l 1
 0 0 l 1
EndSplineSet
Validated: 1
EndChar

StartChar: adieresis
Encoding: 228 228 85
Width: 960
VWidth: 1024
Flags: W
HStem: 0 21G<0 160 640 800> 320 160<160 640> 640 160<160 640>
VStem: 0 160<0 320 480 640> 640 160<0 320 480 640>
LayerCount: 2
Fore
SplineSet
160 480 m 1
 640 480 l 1
 640 640 l 1
 160 640 l 1
 160 480 l 1
0 0 m 1
 0 800 l 1
 800 800 l 1
 800 0 l 1
 640 0 l 1
 640 320 l 1
 160 320 l 1
 160 0 l 1
 0 0 l 1
EndSplineSet
Validated: 1
EndChar

StartChar: aring
Encoding: 229 229 86
Width: 960
VWidth: 1024
Flags: W
HStem: 0 21G<0 160 640 800> 320 160<160 640> 640 160<160 640>
VStem: 0 160<0 320 480 640> 640 160<0 320 480 640>
LayerCount: 2
Fore
SplineSet
160 480 m 1
 640 480 l 1
 640 640 l 1
 160 640 l 1
 160 480 l 1
0 0 m 1
 0 800 l 1
 800 800 l 1
 800 0 l 1
 640 0 l 1
 640 320 l 1
 160 320 l 1
 160 0 l 1
 0 0 l 1
EndSplineSet
Validated: 1
EndChar

StartChar: Egrave
Encoding: 200 200 87
Width: 960
VWidth: 1024
Flags: W
HStem: 0 160<160 800> 320 160<160 640> 640 160<160 800>
VStem: 0 160<160 320 480 640>
LayerCount: 2
Fore
SplineSet
0 0 m 1
 0 800 l 1
 800 800 l 1
 800 640 l 1
 160 640 l 1
 160 480 l 1
 640 480 l 1
 640 320 l 1
 160 320 l 1
 160 160 l 1
 800 160 l 1
 800 0 l 1
 0 0 l 1
EndSplineSet
Validated: 1
EndChar

StartChar: Eacute
Encoding: 201 201 88
Width: 960
VWidth: 1024
Flags: W
HStem: 0 160<160 800> 320 160<160 640> 640 160<160 800>
VStem: 0 160<160 320 480 640>
LayerCount: 2
Fore
SplineSet
0 0 m 1
 0 800 l 1
 800 800 l 1
 800 640 l 1
 160 640 l 1
 160 480 l 1
 640 480 l 1
 640 320 l 1
 160 320 l 1
 160 160 l 1
 800 160 l 1
 800 0 l 1
 0 0 l 1
EndSplineSet
Validated: 1
EndChar

StartChar: Ecircumflex
Encoding: 202 202 89
Width: 960
VWidth: 1024
Flags: W
HStem: 0 160<160 800> 320 160<160 640> 640 160<160 800>
VStem: 0 160<160 320 480 640>
LayerCount: 2
Fore
SplineSet
0 0 m 1
 0 800 l 1
 800 800 l 1
 800 640 l 1
 160 640 l 1
 160 480 l 1
 640 480 l 1
 640 320 l 1
 160 320 l 1
 160 160 l 1
 800 160 l 1
 800 0 l 1
 0 0 l 1
EndSplineSet
Validated: 1
EndChar

StartChar: Edieresis
Encoding: 203 203 90
Width: 960
VWidth: 1024
Flags: W
HStem: 0 160<160 800> 320 160<160 640> 640 160<160 800>
VStem: 0 160<160 320 480 640>
LayerCount: 2
Fore
SplineSet
0 0 m 1
 0 800 l 1
 800 800 l 1
 800 640 l 1
 160 640 l 1
 160 480 l 1
 640 480 l 1
 640 320 l 1
 160 320 l 1
 160 160 l 1
 800 160 l 1
 800 0 l 1
 0 0 l 1
EndSplineSet
Validated: 1
EndChar

StartChar: egrave
Encoding: 232 232 91
Width: 960
VWidth: 1024
Flags: W
HStem: 0 160<160 800> 320 160<160 640> 640 160<160 800>
VStem: 0 160<160 320 480 640>
LayerCount: 2
Fore
SplineSet
0 0 m 1
 0 800 l 1
 800 800 l 1
 800 640 l 1
 160 640 l 1
 160 480 l 1
 640 480 l 1
 640 320 l 1
 160 320 l 1
 160 160 l 1
 800 160 l 1
 800 0 l 1
 0 0 l 1
EndSplineSet
Validated: 1
EndChar

StartChar: eacute
Encoding: 233 233 92
Width: 960
VWidth: 1024
Flags: W
HStem: 0 160<160 800> 320 160<160 640> 640 160<160 800>
VStem: 0 160<160 320 480 640>
LayerCount: 2
Fore
SplineSet
0 0 m 1
 0 800 l 1
 800 800 l 1
 800 640 l 1
 160 640 l 1
 160 480 l 1
 640 480 l 1
 640 320 l 1
 160 320 l 1
 160 160 l 1
 800 160 l 1
 800 0 l 1
 0 0 l 1
EndSplineSet
Validated: 1
EndChar

StartChar: ecircumflex
Encoding: 234 234 93
Width: 960
VWidth: 1024
Flags: W
HStem: 0 160<160 800> 320 160<160 640> 640 160<160 800>
VStem: 0 160<160 320 480 640>
LayerCount: 2
Fore
SplineSet
0 0 m 1
 0 800 l 1
 800 800 l 1
 800 640 l 1
 160 640 l 1
 160 480 l 1
 640 480 l 1
 640 320 l 1
 160 320 l 1
 160 160 l 1
 800 160 l 1
 800 0 l 1
 0 0 l 1
EndSplineSet
Validated: 1
EndChar

StartChar: edieresis
Encoding: 235 235 94
Width: 960
VWidth: 1024
Flags: W
HStem: 0 160<160 800> 320 160<160 640> 640 160<160 800>
VStem: 0 160<160 320 480 640>
LayerCount: 2
Fore
SplineSet
0 0 m 1
 0 800 l 1
 800 800 l 1
 800 640 l 1
 160 640 l 1
 160 480 l 1
 640 480 l 1
 640 320 l 1
 160 320 l 1
 160 160 l 1
 800 160 l 1
 800 0 l 1
 0 0 l 1
EndSplineSet
Validated: 1
EndChar

StartChar: Ccedilla
Encoding: 199 199 95
Width: 960
VWidth: 1024
Flags: W
HStem: 0 160<160 640> 640 160<160 640>
VStem: 0 160<160 640> 640 160<160 320 480 640>
LayerCount: 2
Fore
SplineSet
0 0 m 1
 0 800 l 1
 800 800 l 1
 800 480 l 9
 640 480 l 17
 640 640 l 1
 160 640 l 1
 160 160 l 1
 640 160 l 1
 640 320 l 9
 800 320 l 17
 800 0 l 1
 0 0 l 1
EndSplineSet
Validated: 1
EndChar

StartChar: ccedilla
Encoding: 231 231 96
Width: 960
VWidth: 1024
Flags: W
HStem: 0 160<160 640> 640 160<160 640>
VStem: 0 160<160 640> 640 160<160 320 480 640>
LayerCount: 2
Fore
SplineSet
0 0 m 1
 0 800 l 1
 800 800 l 1
 800 480 l 9
 640 480 l 17
 640 640 l 1
 160 640 l 1
 160 160 l 1
 640 160 l 1
 640 320 l 9
 800 320 l 17
 800 0 l 1
 0 0 l 1
EndSplineSet
Validated: 1
EndChar

StartChar: Ntilde
Encoding: 209 209 97
Width: 960
VWidth: 1024
Flags: W
HStem: 0 21G<0 160 640 800> 640 160<160 640>
VStem: 0 160<0 640> 640 160<0 640>
LayerCount: 2
Fore
SplineSet
0 0 m 1
 0 800 l 1
 800 800 l 1
 800 0 l 1
 640 0 l 1
 640 640 l 1
 160 640 l 1
 160 0 l 1
 0 0 l 1
EndSplineSet
Validated: 1
EndChar

StartChar: ntilde
Encoding: 241 241 98
Width: 960
VWidth: 1024
Flags: W
HStem: 0 21G<0 160 640 800> 640 160<160 640>
VStem: 0 160<0 640> 640 160<0 640>
LayerCount: 2
Fore
SplineSet
0 0 m 1
 0 800 l 1
 800 800 l 1
 800 0 l 1
 640 0 l 1
 640 640 l 1
 160 640 l 1
 160 0 l 1
 0 0 l 1
EndSplineSet
Validated: 1
EndChar

StartChar: Yacute
Encoding: 221 221 99
Width: 960
VWidth: 1024
Flags: W
HStem: 0 21G<320 480> 320 160<160 320 480 640> 780 20G<0 160 640 800>
VStem: 0 160<480 800> 320 160<0 320> 640 160<480 800>
LayerCount: 2
Fore
SplineSet
0 320 m 1
 0 800 l 1
 160 800 l 1
 160 480 l 1
 640 480 l 1
 640 800 l 1
 800 800 l 1
 800 320 l 1
 480 320 l 1
 480 0 l 1
 320 0 l 1
 320 320 l 1
 0 320 l 1
EndSplineSet
Validated: 1
EndChar

StartChar: yacute
Encoding: 253 253 100
Width: 960
VWidth: 1024
Flags: W
HStem: 0 21G<320 480> 320 160<160 320 480 640> 780 20G<0 160 640 800>
VStem: 0 160<480 800> 320 160<0 320> 640 160<480 800>
LayerCount: 2
Fore
SplineSet
0 320 m 1
 0 800 l 1
 160 800 l 1
 160 480 l 1
 640 480 l 1
 640 800 l 1
 800 800 l 1
 800 320 l 1
 480 320 l 1
 480 0 l 1
 320 0 l 1
 320 320 l 1
 0 320 l 1
EndSplineSet
Validated: 1
EndChar

StartChar: ydieresis
Encoding: 255 255 101
Width: 960
VWidth: 1024
Flags: W
HStem: 0 21G<320 480> 320 160<160 320 480 640> 780 20G<0 160 640 800>
VStem: 0 160<480 800> 320 160<0 320> 640 160<480 800>
LayerCount: 2
Fore
SplineSet
0 320 m 1
 0 800 l 1
 160 800 l 1
 160 480 l 1
 640 480 l 1
 640 800 l 1
 800 800 l 1
 800 320 l 1
 480 320 l 1
 480 0 l 1
 320 0 l 1
 320 320 l 1
 0 320 l 1
EndSplineSet
Validated: 1
EndChar

StartChar: Ydieresis
Encoding: 376 376 102
Width: 960
VWidth: 1024
Flags: W
HStem: 0 21G<320 480> 320 160<160 320 480 640> 780 20G<0 160 640 800>
VStem: 0 160<480 800> 320 160<0 320> 640 160<480 800>
LayerCount: 2
Fore
SplineSet
0 320 m 1
 0 800 l 1
 160 800 l 1
 160 480 l 1
 640 480 l 1
 640 800 l 1
 800 800 l 1
 800 320 l 1
 480 320 l 1
 480 0 l 1
 320 0 l 1
 320 320 l 1
 0 320 l 1
EndSplineSet
Validated: 1
EndChar

StartChar: Ograve
Encoding: 210 210 103
Width: 960
VWidth: 1024
Flags: W
HStem: 0 160<160 640> 640 160<160 640>
VStem: 0 160<160 640> 640 160<160 640>
LayerCount: 2
Fore
SplineSet
160 160 m 1
 640 160 l 1
 640 640 l 1
 160 640 l 1
 160 160 l 1
0 0 m 1
 0 800 l 1
 800 800 l 1
 800 0 l 1
 0 0 l 1
EndSplineSet
Validated: 1
EndChar

StartChar: Oacute
Encoding: 211 211 104
Width: 960
VWidth: 1024
Flags: W
HStem: 0 160<160 640> 640 160<160 640>
VStem: 0 160<160 640> 640 160<160 640>
LayerCount: 2
Fore
SplineSet
160 160 m 1
 640 160 l 1
 640 640 l 1
 160 640 l 1
 160 160 l 1
0 0 m 1
 0 800 l 1
 800 800 l 1
 800 0 l 1
 0 0 l 1
EndSplineSet
Validated: 1
EndChar

StartChar: Ocircumflex
Encoding: 212 212 105
Width: 960
VWidth: 1024
Flags: W
HStem: 0 160<160 640> 640 160<160 640>
VStem: 0 160<160 640> 640 160<160 640>
LayerCount: 2
Fore
SplineSet
160 160 m 1
 640 160 l 1
 640 640 l 1
 160 640 l 1
 160 160 l 1
0 0 m 1
 0 800 l 1
 800 800 l 1
 800 0 l 1
 0 0 l 1
EndSplineSet
Validated: 1
EndChar

StartChar: Otilde
Encoding: 213 213 106
Width: 960
VWidth: 1024
Flags: W
HStem: 0 160<160 640> 640 160<160 640>
VStem: 0 160<160 640> 640 160<160 640>
LayerCount: 2
Fore
SplineSet
160 160 m 1
 640 160 l 1
 640 640 l 1
 160 640 l 1
 160 160 l 1
0 0 m 1
 0 800 l 1
 800 800 l 1
 800 0 l 1
 0 0 l 1
EndSplineSet
Validated: 1
EndChar

StartChar: Odieresis
Encoding: 214 214 107
Width: 960
VWidth: 1024
Flags: W
HStem: 0 160<160 640> 640 160<160 640>
VStem: 0 160<160 640> 640 160<160 640>
LayerCount: 2
Fore
SplineSet
160 160 m 1
 640 160 l 1
 640 640 l 1
 160 640 l 1
 160 160 l 1
0 0 m 1
 0 800 l 1
 800 800 l 1
 800 0 l 1
 0 0 l 1
EndSplineSet
Validated: 1
EndChar

StartChar: ograve
Encoding: 242 242 108
Width: 960
VWidth: 1024
Flags: W
HStem: 0 160<160 640> 640 160<160 640>
VStem: 0 160<160 640> 640 160<160 640>
LayerCount: 2
Fore
SplineSet
160 160 m 1
 640 160 l 1
 640 640 l 1
 160 640 l 1
 160 160 l 1
0 0 m 1
 0 800 l 1
 800 800 l 1
 800 0 l 1
 0 0 l 1
EndSplineSet
Validated: 1
EndChar

StartChar: oacute
Encoding: 243 243 109
Width: 960
VWidth: 1024
Flags: W
HStem: 0 160<160 640> 640 160<160 640>
VStem: 0 160<160 640> 640 160<160 640>
LayerCount: 2
Fore
SplineSet
160 160 m 1
 640 160 l 1
 640 640 l 1
 160 640 l 1
 160 160 l 1
0 0 m 1
 0 800 l 1
 800 800 l 1
 800 0 l 1
 0 0 l 1
EndSplineSet
Validated: 1
EndChar

StartChar: ocircumflex
Encoding: 244 244 110
Width: 960
VWidth: 1024
Flags: W
HStem: 0 160<160 640> 640 160<160 640>
VStem: 0 160<160 640> 640 160<160 640>
LayerCount: 2
Fore
SplineSet
160 160 m 1
 640 160 l 1
 640 640 l 1
 160 640 l 1
 160 160 l 1
0 0 m 1
 0 800 l 1
 800 800 l 1
 800 0 l 1
 0 0 l 1
EndSplineSet
Validated: 1
EndChar

StartChar: otilde
Encoding: 245 245 111
Width: 960
VWidth: 1024
Flags: W
HStem: 0 160<160 640> 640 160<160 640>
VStem: 0 160<160 640> 640 160<160 640>
LayerCount: 2
Fore
SplineSet
160 160 m 1
 640 160 l 1
 640 640 l 1
 160 640 l 1
 160 160 l 1
0 0 m 1
 0 800 l 1
 800 800 l 1
 800 0 l 1
 0 0 l 1
EndSplineSet
Validated: 1
EndChar

StartChar: odieresis
Encoding: 246 246 112
Width: 960
VWidth: 1024
Flags: W
HStem: 0 160<160 640> 640 160<160 640>
VStem: 0 160<160 640> 640 160<160 640>
LayerCount: 2
Fore
SplineSet
160 160 m 1
 640 160 l 1
 640 640 l 1
 160 640 l 1
 160 160 l 1
0 0 m 1
 0 800 l 1
 800 800 l 1
 800 0 l 1
 0 0 l 1
EndSplineSet
Validated: 1
EndChar

StartChar: Oslash
Encoding: 216 216 113
Width: 960
VWidth: 1024
Flags: W
HStem: 0 160<160 640> 640 160<160 640>
VStem: 0 160<160 640> 640 160<160 640>
LayerCount: 2
Fore
SplineSet
160 160 m 1
 640 160 l 1
 640 640 l 1
 160 640 l 1
 160 160 l 1
0 0 m 1
 0 800 l 1
 800 800 l 1
 800 0 l 1
 0 0 l 1
EndSplineSet
Validated: 1
EndChar

StartChar: oslash
Encoding: 248 248 114
Width: 960
VWidth: 1024
Flags: W
HStem: 0 160<160 640> 640 160<160 640>
VStem: 0 160<160 640> 640 160<160 640>
LayerCount: 2
Fore
SplineSet
160 160 m 1
 640 160 l 1
 640 640 l 1
 160 640 l 1
 160 160 l 1
0 0 m 1
 0 800 l 1
 800 800 l 1
 800 0 l 1
 0 0 l 1
EndSplineSet
Validated: 1
EndChar

StartChar: Ugrave
Encoding: 217 217 115
Width: 960
VWidth: 1024
Flags: W
HStem: 0 160<160 640> 780 20G<0 160 640 800>
VStem: 0 160<160 800> 640 160<160 800>
LayerCount: 2
Fore
SplineSet
0 0 m 1
 0 800 l 1
 160 800 l 1
 160 160 l 1
 640 160 l 1
 640 800 l 1
 800 800 l 1
 800 0 l 1
 0 0 l 1
EndSplineSet
Validated: 1
EndChar

StartChar: Uacute
Encoding: 218 218 116
Width: 960
VWidth: 1024
Flags: W
HStem: 0 160<160 640> 780 20G<0 160 640 800>
VStem: 0 160<160 800> 640 160<160 800>
LayerCount: 2
Fore
SplineSet
0 0 m 1
 0 800 l 1
 160 800 l 1
 160 160 l 1
 640 160 l 1
 640 800 l 1
 800 800 l 1
 800 0 l 1
 0 0 l 1
EndSplineSet
Validated: 1
EndChar

StartChar: Ucircumflex
Encoding: 219 219 117
Width: 960
VWidth: 1024
Flags: W
HStem: 0 160<160 640> 780 20G<0 160 640 800>
VStem: 0 160<160 800> 640 160<160 800>
LayerCount: 2
Fore
SplineSet
0 0 m 1
 0 800 l 1
 160 800 l 1
 160 160 l 1
 640 160 l 1
 640 800 l 1
 800 800 l 1
 800 0 l 1
 0 0 l 1
EndSplineSet
Validated: 1
EndChar

StartChar: Udieresis
Encoding: 220 220 118
Width: 960
VWidth: 1024
Flags: W
HStem: 0 160<160 640> 780 20G<0 160 640 800>
VStem: 0 160<160 800> 640 160<160 800>
LayerCount: 2
Fore
SplineSet
0 0 m 1
 0 800 l 1
 160 800 l 1
 160 160 l 1
 640 160 l 1
 640 800 l 1
 800 800 l 1
 800 0 l 1
 0 0 l 1
EndSplineSet
Validated: 1
EndChar

StartChar: ugrave
Encoding: 249 249 119
Width: 960
VWidth: 1024
Flags: W
HStem: 0 160<160 640> 780 20G<0 160 640 800>
VStem: 0 160<160 800> 640 160<160 800>
LayerCount: 2
Fore
SplineSet
0 0 m 1
 0 800 l 1
 160 800 l 1
 160 160 l 1
 640 160 l 1
 640 800 l 1
 800 800 l 1
 800 0 l 1
 0 0 l 1
EndSplineSet
Validated: 1
EndChar

StartChar: uacute
Encoding: 250 250 120
Width: 960
VWidth: 1024
Flags: W
HStem: 0 160<160 640> 780 20G<0 160 640 800>
VStem: 0 160<160 800> 640 160<160 800>
LayerCount: 2
Fore
SplineSet
0 0 m 1
 0 800 l 1
 160 800 l 1
 160 160 l 1
 640 160 l 1
 640 800 l 1
 800 800 l 1
 800 0 l 1
 0 0 l 1
EndSplineSet
Validated: 1
EndChar

StartChar: ucircumflex
Encoding: 251 251 121
Width: 960
VWidth: 1024
Flags: W
HStem: 0 160<160 640> 780 20G<0 160 640 800>
VStem: 0 160<160 800> 640 160<160 800>
LayerCount: 2
Fore
SplineSet
0 0 m 1
 0 800 l 1
 160 800 l 1
 160 160 l 1
 640 160 l 1
 640 800 l 1
 800 800 l 1
 800 0 l 1
 0 0 l 1
EndSplineSet
Validated: 1
EndChar

StartChar: udieresis
Encoding: 252 252 122
Width: 960
VWidth: 1024
Flags: W
HStem: 0 160<160 640> 780 20G<0 160 640 800>
VStem: 0 160<160 800> 640 160<160 800>
LayerCount: 2
Fore
SplineSet
0 0 m 1
 0 800 l 1
 160 800 l 1
 160 160 l 1
 640 160 l 1
 640 800 l 1
 800 800 l 1
 800 0 l 1
 0 0 l 1
EndSplineSet
Validated: 1
EndChar

StartChar: Igrave
Encoding: 204 204 123
Width: 320
VWidth: 1024
Flags: W
HStem: 0 21G<0 160> 780 20G<0 160>
VStem: 0 160<0 800>
LayerCount: 2
Fore
SplineSet
0 0 m 1
 0 800 l 1
 160 800 l 1
 160 0 l 1
 0 0 l 1
EndSplineSet
Validated: 1
EndChar

StartChar: Iacute
Encoding: 205 205 124
Width: 320
VWidth: 1024
Flags: W
HStem: 0 21G<0 160> 780 20G<0 160>
VStem: 0 160<0 800>
LayerCount: 2
Fore
SplineSet
0 0 m 1
 0 800 l 1
 160 800 l 1
 160 0 l 1
 0 0 l 1
EndSplineSet
Validated: 1
EndChar

StartChar: Icircumflex
Encoding: 206 206 125
Width: 320
VWidth: 1024
Flags: W
HStem: 0 21G<0 160> 780 20G<0 160>
VStem: 0 160<0 800>
LayerCount: 2
Fore
SplineSet
0 0 m 1
 0 800 l 1
 160 800 l 1
 160 0 l 1
 0 0 l 1
EndSplineSet
Validated: 1
EndChar

StartChar: Idieresis
Encoding: 207 207 126
Width: 320
VWidth: 1024
Flags: W
HStem: 0 21G<0 160> 780 20G<0 160>
VStem: 0 160<0 800>
LayerCount: 2
Fore
SplineSet
0 0 m 1
 0 800 l 1
 160 800 l 1
 160 0 l 1
 0 0 l 1
EndSplineSet
Validated: 1
EndChar

StartChar: igrave
Encoding: 236 236 127
Width: 320
VWidth: 1024
Flags: W
HStem: 0 21G<0 160> 780 20G<0 160>
VStem: 0 160<0 800>
LayerCount: 2
Fore
SplineSet
0 0 m 1
 0 800 l 1
 160 800 l 1
 160 0 l 1
 0 0 l 1
EndSplineSet
Validated: 1
EndChar

StartChar: iacute
Encoding: 237 237 128
Width: 320
VWidth: 1024
Flags: W
HStem: 0 21G<0 160> 780 20G<0 160>
VStem: 0 160<0 800>
LayerCount: 2
Fore
SplineSet
0 0 m 1
 0 800 l 1
 160 800 l 1
 160 0 l 1
 0 0 l 1
EndSplineSet
Validated: 1
EndChar

StartChar: icircumflex
Encoding: 238 238 129
Width: 320
VWidth: 1024
Flags: W
HStem: 0 21G<0 160> 780 20G<0 160>
VStem: 0 160<0 800>
LayerCount: 2
Fore
SplineSet
0 0 m 1
 0 800 l 1
 160 800 l 1
 160 0 l 1
 0 0 l 1
EndSplineSet
Validated: 1
EndChar

StartChar: idieresis
Encoding: 239 239 130
Width: 320
VWidth: 1024
Flags: W
HStem: 0 21G<0 160> 780 20G<0 160>
VStem: 0 160<0 800>
LayerCount: 2
Fore
SplineSet
0 0 m 1
 0 800 l 1
 160 800 l 1
 160 0 l 1
 0 0 l 1
EndSplineSet
Validated: 1
EndChar
